<svg xmlns="http://www.w3.org/2000/svg" viewBox="0 0 500 500"><defs><clipPath id="a"><path d="M24 123h11v11H24zM24 134h11v11H24zM24 156h11v11H24zM24 167h11v11H24zM24 178h11v11H24zM24 189h11v11H24zM24 211h11v11H24zM24 222h11v11H24zM24 255h11v11H24zM24 288h11v11H24zM24 299h11v11H24zM24 310h11v11H24zM24 343h11v11H24zM24 354h11v11H24zM24 376h11v11H24zM35 112h11v11H35zM35 145h11v11H35zM35 189h11v11H35zM35 200h11v11H35zM35 233h11v11H35zM35 244h11v11H35zM35 255h11v11H35zM35 266h11v11H35zM35 288h11v11H35zM35 299h11v11H35zM35 310h11v11H35zM35 343h11v11H35zM35 354h11v11H35zM35 365h11v11H35zM46 123h11v11H46zM46 134h11v11H46zM46 156h11v11H46zM46 167h11v11H46zM46 200h11v11H46zM46 233h11v11H46zM46 266h11v11H46zM46 277h11v11H46zM46 288h11v11H46zM46 299h11v11H46zM46 310h11v11H46zM46 321h11v11H46zM46 354h11v11H46zM46 365h11v11H46zM46 376h11v11H46zM57 112h11v11H57zM57 123h11v11H57zM57 211h11v11H57zM57 222h11v11H57zM57 233h11v11H57zM57 255h11v11H57zM57 288h11v11H57zM57 310h11v11H57zM57 321h11v11H57zM57 332h11v11H57zM57 343h11v11H57zM57 354h11v11H57zM57 365h11v11H57zM68 112h11v11H68zM68 134h11v11H68zM68 156h11v11H68zM68 167h11v11H68zM68 178h11v11H68zM68 200h11v11H68zM68 244h11v11H68zM68 255h11v11H68zM68 266h11v11H68zM68 288h11v11H68zM68 332h11v11H68zM68 343h11v11H68zM68 365h11v11H68zM79 145h11v11H79zM79 178h11v11H79zM79 222h11v11H79zM79 244h11v11H79zM79 277h11v11H79zM79 288h11v11H79zM79 343h11v11H79zM79 354h11v11H79zM79 376h11v11H79zM90 112h11v11H90zM90 134h11v11H90zM90 156h11v11H90zM90 178h11v11H90zM90 200h11v11H90zM90 222h11v11H90zM90 244h11v11H90zM90 266h11v11H90zM90 288h11v11H90zM90 310h11v11H90zM90 332h11v11H90zM90 354h11v11H90zM90 376h11v11H90zM101 112h11v11h-11zM101 123h11v11h-11zM101 134h11v11h-11zM101 145h11v11h-11zM101 167h11v11h-11zM101 189h11v11h-11zM101 211h11v11h-11zM101 233h11v11h-11zM101 244h11v11h-11zM101 266h11v11h-11zM101 277h11v11h-11zM101 288h11v11h-11zM101 299h11v11h-11zM101 365h11v11h-11zM101 376h11v11h-11zM112 35h11v11h-11zM112 57h11v11h-11zM112 68h11v11h-11zM112 79h11v11h-11zM112 90h11v11h-11zM112 112h11v11h-11zM112 156h11v11h-11zM112 200h11v11h-11zM112 211h11v11h-11zM112 233h11v11h-11zM112 255h11v11h-11zM112 310h11v11h-11zM112 321h11v11h-11zM112 332h11v11h-11zM112 343h11v11h-11zM112 365h11v11h-11zM112 387h11v11h-11zM112 398h11v11h-11zM112 420h11v11h-11zM112 431h11v11h-11zM112 453h11v11h-11zM123 46h11v11h-11zM123 57h11v11h-11zM123 68h11v11h-11zM123 112h11v11h-11zM123 123h11v11h-11zM123 156h11v11h-11zM123 167h11v11h-11zM123 178h11v11h-11zM123 189h11v11h-11zM123 200h11v11h-11zM123 222h11v11h-11zM123 233h11v11h-11zM123 255h11v11h-11zM123 266h11v11h-11zM123 288h11v11h-11zM123 299h11v11h-11zM123 321h11v11h-11zM123 365h11v11h-11zM123 387h11v11h-11zM123 409h11v11h-11zM123 420h11v11h-11zM123 453h11v11h-11zM134 35h11v11h-11zM134 68h11v11h-11zM134 79h11v11h-11zM134 90h11v11h-11zM134 101h11v11h-11zM134 123h11v11h-11zM134 145h11v11h-11zM134 156h11v11h-11zM134 189h11v11h-11zM134 200h11v11h-11zM134 255h11v11h-11zM134 288h11v11h-11zM134 310h11v11h-11zM134 321h11v11h-11zM134 343h11v11h-11zM134 354h11v11h-11zM134 387h11v11h-11zM134 420h11v11h-11zM134 442h11v11h-11zM134 453h11v11h-11zM145 24h11v11h-11zM145 68h11v11h-11zM145 101h11v11h-11zM145 112h11v11h-11zM145 123h11v11h-11zM145 145h11v11h-11zM145 156h11v11h-11zM145 178h11v11h-11zM145 200h11v11h-11zM145 211h11v11h-11zM145 233h11v11h-11zM145 277h11v11h-11zM145 310h11v11h-11zM145 321h11v11h-11zM145 343h11v11h-11zM145 354h11v11h-11zM145 365h11v11h-11zM145 376h11v11h-11zM145 387h11v11h-11zM145 398h11v11h-11zM145 420h11v11h-11zM145 431h11v11h-11zM145 453h11v11h-11zM145 464h11v11h-11zM156 35h11v11h-11zM156 46h11v11h-11zM156 57h11v11h-11zM156 68h11v11h-11zM156 79h11v11h-11zM156 90h11v11h-11zM156 112h11v11h-11zM156 123h11v11h-11zM156 167h11v11h-11zM156 178h11v11h-11zM156 189h11v11h-11zM156 200h11v11h-11zM156 211h11v11h-11zM156 222h11v11h-11zM156 332h11v11h-11zM156 387h11v11h-11zM156 398h11v11h-11zM156 453h11v11h-11zM156 464h11v11h-11zM167 24h11v11h-11zM167 35h11v11h-11zM167 57h11v11h-11zM167 68h11v11h-11zM167 101h11v11h-11zM167 123h11v11h-11zM167 145h11v11h-11zM167 211h11v11h-11zM167 222h11v11h-11zM167 266h11v11h-11zM167 288h11v11h-11zM167 299h11v11h-11zM167 310h11v11h-11zM167 332h11v11h-11zM167 343h11v11h-11zM167 376h11v11h-11zM167 387h11v11h-11zM167 398h11v11h-11zM167 409h11v11h-11zM167 420h11v11h-11zM167 431h11v11h-11zM167 442h11v11h-11zM167 464h11v11h-11zM178 35h11v11h-11zM178 57h11v11h-11zM178 68h11v11h-11zM178 79h11v11h-11zM178 90h11v11h-11zM178 101h11v11h-11zM178 112h11v11h-11zM178 134h11v11h-11zM178 145h11v11h-11zM178 156h11v11h-11zM178 167h11v11h-11zM178 200h11v11h-11zM178 222h11v11h-11zM178 233h11v11h-11zM178 299h11v11h-11zM178 310h11v11h-11zM178 332h11v11h-11zM178 365h11v11h-11zM178 387h11v11h-11zM178 398h11v11h-11zM178 409h11v11h-11zM178 442h11v11h-11zM178 464h11v11h-11zM189 35h11v11h-11zM189 46h11v11h-11zM189 68h11v11h-11zM189 79h11v11h-11zM189 101h11v11h-11zM189 112h11v11h-11zM189 178h11v11h-11zM189 189h11v11h-11zM189 200h11v11h-11zM189 288h11v11h-11zM189 321h11v11h-11zM189 376h11v11h-11zM189 387h11v11h-11zM189 409h11v11h-11zM189 431h11v11h-11zM189 442h11v11h-11zM189 453h11v11h-11zM189 464h11v11h-11zM200 24h11v11h-11zM200 35h11v11h-11zM200 46h11v11h-11zM200 90h11v11h-11zM200 101h11v11h-11zM200 123h11v11h-11zM200 178h11v11h-11zM200 211h11v11h-11zM200 222h11v11h-11zM200 233h11v11h-11zM200 255h11v11h-11zM200 277h11v11h-11zM200 288h11v11h-11zM200 299h11v11h-11zM200 376h11v11h-11zM200 387h11v11h-11zM200 464h11v11h-11zM211 24h11v11h-11zM211 35h11v11h-11zM211 46h11v11h-11zM211 57h11v11h-11zM211 68h11v11h-11zM211 101h11v11h-11zM211 134h11v11h-11zM211 189h11v11h-11zM211 222h11v11h-11zM211 244h11v11h-11zM211 255h11v11h-11zM211 266h11v11h-11zM211 299h11v11h-11zM211 310h11v11h-11zM211 321h11v11h-11zM211 343h11v11h-11zM211 365h11v11h-11zM211 376h11v11h-11zM211 387h11v11h-11zM211 420h11v11h-11zM211 431h11v11h-11zM222 24h11v11h-11zM222 46h11v11h-11zM222 57h11v11h-11zM222 68h11v11h-11zM222 90h11v11h-11zM222 134h11v11h-11zM222 156h11v11h-11zM222 167h11v11h-11zM222 178h11v11h-11zM222 189h11v11h-11zM222 222h11v11h-11zM222 244h11v11h-11zM222 277h11v11h-11zM222 321h11v11h-11zM222 332h11v11h-11zM222 343h11v11h-11zM222 354h11v11h-11zM222 365h11v11h-11zM222 398h11v11h-11zM222 409h11v11h-11zM222 420h11v11h-11zM222 442h11v11h-11zM222 464h11v11h-11zM233 46h11v11h-11zM233 57h11v11h-11zM233 123h11v11h-11zM233 145h11v11h-11zM233 156h11v11h-11zM233 178h11v11h-11zM233 189h11v11h-11zM233 200h11v11h-11zM233 211h11v11h-11zM233 244h11v11h-11zM233 266h11v11h-11zM233 288h11v11h-11zM233 310h11v11h-11zM233 332h11v11h-11zM233 365h11v11h-11zM233 387h11v11h-11zM233 420h11v11h-11zM233 442h11v11h-11zM233 464h11v11h-11zM244 46h11v11h-11zM244 57h11v11h-11zM244 90h11v11h-11zM244 112h11v11h-11zM244 123h11v11h-11zM244 156h11v11h-11zM244 167h11v11h-11zM244 178h11v11h-11zM244 189h11v11h-11zM244 211h11v11h-11zM244 222h11v11h-11zM244 266h11v11h-11zM244 277h11v11h-11zM244 299h11v11h-11zM244 310h11v11h-11zM244 332h11v11h-11zM244 354h11v11h-11zM244 365h11v11h-11zM244 398h11v11h-11zM244 409h11v11h-11zM244 442h11v11h-11zM255 24h11v11h-11zM255 35h11v11h-11zM255 57h11v11h-11zM255 68h11v11h-11zM255 79h11v11h-11zM255 123h11v11h-11zM255 134h11v11h-11zM255 167h11v11h-11zM255 178h11v11h-11zM255 200h11v11h-11zM255 211h11v11h-11zM255 244h11v11h-11zM255 255h11v11h-11zM255 277h11v11h-11zM255 310h11v11h-11zM255 321h11v11h-11zM255 354h11v11h-11zM255 365h11v11h-11zM255 387h11v11h-11zM255 420h11v11h-11zM255 431h11v11h-11zM255 442h11v11h-11zM266 24h11v11h-11zM266 46h11v11h-11zM266 68h11v11h-11zM266 79h11v11h-11zM266 90h11v11h-11zM266 112h11v11h-11zM266 123h11v11h-11zM266 134h11v11h-11zM266 145h11v11h-11zM266 156h11v11h-11zM266 178h11v11h-11zM266 200h11v11h-11zM266 211h11v11h-11zM266 244h11v11h-11zM266 266h11v11h-11zM266 277h11v11h-11zM266 310h11v11h-11zM266 321h11v11h-11zM266 343h11v11h-11zM266 354h11v11h-11zM266 387h11v11h-11zM266 442h11v11h-11zM277 46h11v11h-11zM277 57h11v11h-11zM277 68h11v11h-11zM277 134h11v11h-11zM277 156h11v11h-11zM277 178h11v11h-11zM277 189h11v11h-11zM277 200h11v11h-11zM277 233h11v11h-11zM277 266h11v11h-11zM277 321h11v11h-11zM277 332h11v11h-11zM277 343h11v11h-11zM277 354h11v11h-11zM277 365h11v11h-11zM277 376h11v11h-11zM277 420h11v11h-11zM288 35h11v11h-11zM288 46h11v11h-11zM288 57h11v11h-11zM288 79h11v11h-11zM288 90h11v11h-11zM288 101h11v11h-11zM288 123h11v11h-11zM288 134h11v11h-11zM288 145h11v11h-11zM288 200h11v11h-11zM288 211h11v11h-11zM288 233h11v11h-11zM288 255h11v11h-11zM288 266h11v11h-11zM288 288h11v11h-11zM288 321h11v11h-11zM288 332h11v11h-11zM288 376h11v11h-11zM288 398h11v11h-11zM288 409h11v11h-11zM288 453h11v11h-11zM288 464h11v11h-11zM299 46h11v11h-11zM299 68h11v11h-11zM299 79h11v11h-11zM299 101h11v11h-11zM299 123h11v11h-11zM299 134h11v11h-11zM299 156h11v11h-11zM299 167h11v11h-11zM299 200h11v11h-11zM299 244h11v11h-11zM299 277h11v11h-11zM299 321h11v11h-11zM299 376h11v11h-11zM299 398h11v11h-11zM299 409h11v11h-11zM299 420h11v11h-11zM299 442h11v11h-11zM299 453h11v11h-11zM299 464h11v11h-11zM310 35h11v11h-11zM310 68h11v11h-11zM310 90h11v11h-11zM310 145h11v11h-11zM310 200h11v11h-11zM310 211h11v11h-11zM310 266h11v11h-11zM310 288h11v11h-11zM310 310h11v11h-11zM310 321h11v11h-11zM310 354h11v11h-11zM310 365h11v11h-11zM310 376h11v11h-11zM310 387h11v11h-11zM310 398h11v11h-11zM310 420h11v11h-11zM310 431h11v11h-11zM310 453h11v11h-11zM310 464h11v11h-11zM321 35h11v11h-11zM321 46h11v11h-11zM321 57h11v11h-11zM321 134h11v11h-11zM321 145h11v11h-11zM321 167h11v11h-11zM321 178h11v11h-11zM321 233h11v11h-11zM321 266h11v11h-11zM321 310h11v11h-11zM321 321h11v11h-11zM321 332h11v11h-11zM321 354h11v11h-11zM321 365h11v11h-11zM321 387h11v11h-11zM321 398h11v11h-11zM321 431h11v11h-11zM321 442h11v11h-11zM321 464h11v11h-11zM332 35h11v11h-11zM332 46h11v11h-11zM332 57h11v11h-11zM332 90h11v11h-11zM332 101h11v11h-11zM332 112h11v11h-11zM332 145h11v11h-11zM332 156h11v11h-11zM332 211h11v11h-11zM332 233h11v11h-11zM332 288h11v11h-11zM332 299h11v11h-11zM332 321h11v11h-11zM332 332h11v11h-11zM332 354h11v11h-11zM332 365h11v11h-11zM332 387h11v11h-11zM332 409h11v11h-11zM332 431h11v11h-11zM343 24h11v11h-11zM343 35h11v11h-11zM343 46h11v11h-11zM343 57h11v11h-11zM343 101h11v11h-11zM343 112h11v11h-11zM343 134h11v11h-11zM343 145h11v11h-11zM343 178h11v11h-11zM343 200h11v11h-11zM343 211h11v11h-11zM343 222h11v11h-11zM343 255h11v11h-11zM343 277h11v11h-11zM343 332h11v11h-11zM343 343h11v11h-11zM343 354h11v11h-11zM343 365h11v11h-11zM343 387h11v11h-11zM343 409h11v11h-11zM343 420h11v11h-11zM343 431h11v11h-11zM343 442h11v11h-11zM354 24h11v11h-11zM354 35h11v11h-11zM354 46h11v11h-11zM354 57h11v11h-11zM354 68h11v11h-11zM354 79h11v11h-11zM354 90h11v11h-11zM354 101h11v11h-11zM354 112h11v11h-11zM354 123h11v11h-11zM354 145h11v11h-11zM354 167h11v11h-11zM354 200h11v11h-11zM354 233h11v11h-11zM354 244h11v11h-11zM354 255h11v11h-11zM354 266h11v11h-11zM354 288h11v11h-11zM354 299h11v11h-11zM354 321h11v11h-11zM354 365h11v11h-11zM354 387h11v11h-11zM354 420h11v11h-11zM354 453h11v11h-11zM354 464h11v11h-11zM365 24h11v11h-11zM365 35h11v11h-11zM365 46h11v11h-11zM365 57h11v11h-11zM365 68h11v11h-11zM365 123h11v11h-11zM365 145h11v11h-11zM365 178h11v11h-11zM365 189h11v11h-11zM365 233h11v11h-11zM365 244h11v11h-11zM365 255h11v11h-11zM365 266h11v11h-11zM365 277h11v11h-11zM365 299h11v11h-11zM365 310h11v11h-11zM365 365h11v11h-11zM365 376h11v11h-11zM365 398h11v11h-11zM365 409h11v11h-11zM365 442h11v11h-11zM365 453h11v11h-11zM365 464h11v11h-11zM376 24h11v11h-11zM376 35h11v11h-11zM376 57h11v11h-11zM376 90h11v11h-11zM376 123h11v11h-11zM376 134h11v11h-11zM376 167h11v11h-11zM376 189h11v11h-11zM376 222h11v11h-11zM376 233h11v11h-11zM376 255h11v11h-11zM376 277h11v11h-11zM376 288h11v11h-11zM376 321h11v11h-11zM376 332h11v11h-11zM376 343h11v11h-11zM376 376h11v11h-11zM376 387h11v11h-11zM376 398h11v11h-11zM376 409h11v11h-11zM376 420h11v11h-11zM376 431h11v11h-11zM376 442h11v11h-11zM376 464h11v11h-11zM387 112h11v11h-11zM387 123h11v11h-11zM387 145h11v11h-11zM387 156h11v11h-11zM387 189h11v11h-11zM387 211h11v11h-11zM387 255h11v11h-11zM387 266h11v11h-11zM387 277h11v11h-11zM387 310h11v11h-11zM387 321h11v11h-11zM387 343h11v11h-11zM387 354h11v11h-11zM387 365h11v11h-11zM387 376h11v11h-11zM387 420h11v11h-11zM387 431h11v11h-11zM387 442h11v11h-11zM398 134h11v11h-11zM398 145h11v11h-11zM398 167h11v11h-11zM398 211h11v11h-11zM398 244h11v11h-11zM398 255h11v11h-11zM398 277h11v11h-11zM398 310h11v11h-11zM398 321h11v11h-11zM398 332h11v11h-11zM398 365h11v11h-11zM398 376h11v11h-11zM398 398h11v11h-11zM398 420h11v11h-11zM398 442h11v11h-11zM398 453h11v11h-11zM409 112h11v11h-11zM409 134h11v11h-11zM409 156h11v11h-11zM409 167h11v11h-11zM409 178h11v11h-11zM409 189h11v11h-11zM409 255h11v11h-11zM409 266h11v11h-11zM409 310h11v11h-11zM409 332h11v11h-11zM409 354h11v11h-11zM409 365h11v11h-11zM409 376h11v11h-11zM409 420h11v11h-11zM409 431h11v11h-11zM409 453h11v11h-11zM409 464h11v11h-11zM420 112h11v11h-11zM420 123h11v11h-11zM420 156h11v11h-11zM420 178h11v11h-11zM420 189h11v11h-11zM420 200h11v11h-11zM420 211h11v11h-11zM420 244h11v11h-11zM420 266h11v11h-11zM420 288h11v11h-11zM420 299h11v11h-11zM420 310h11v11h-11zM420 321h11v11h-11zM420 343h11v11h-11zM420 365h11v11h-11zM420 376h11v11h-11zM420 387h11v11h-11zM420 398h11v11h-11zM420 409h11v11h-11zM420 420h11v11h-11zM420 431h11v11h-11zM420 464h11v11h-11zM431 112h11v11h-11zM431 189h11v11h-11zM431 222h11v11h-11zM431 255h11v11h-11zM431 277h11v11h-11zM431 299h11v11h-11zM431 321h11v11h-11zM431 332h11v11h-11zM431 354h11v11h-11zM431 376h11v11h-11zM431 409h11v11h-11zM431 442h11v11h-11zM442 145h11v11h-11zM442 156h11v11h-11zM442 178h11v11h-11zM442 189h11v11h-11zM442 211h11v11h-11zM442 244h11v11h-11zM442 288h11v11h-11zM442 299h11v11h-11zM442 321h11v11h-11zM442 354h11v11h-11zM442 387h11v11h-11zM442 409h11v11h-11zM442 420h11v11h-11zM442 464h11v11h-11zM453 112h11v11h-11zM453 134h11v11h-11zM453 156h11v11h-11zM453 167h11v11h-11zM453 189h11v11h-11zM453 200h11v11h-11zM453 233h11v11h-11zM453 255h11v11h-11zM453 266h11v11h-11zM453 277h11v11h-11zM453 288h11v11h-11zM453 310h11v11h-11zM453 321h11v11h-11zM453 354h11v11h-11zM453 398h11v11h-11zM453 420h11v11h-11zM453 442h11v11h-11zM453 464h11v11h-11zM464 123h11v11h-11zM464 134h11v11h-11zM464 145h11v11h-11zM464 178h11v11h-11zM464 189h11v11h-11zM464 200h11v11h-11zM464 222h11v11h-11zM464 233h11v11h-11zM464 277h11v11h-11zM464 288h11v11h-11zM464 299h11v11h-11zM464 332h11v11h-11zM464 376h11v11h-11zM464 398h11v11h-11zM464 420h11v11h-11zM464 431h11v11h-11z"/><path d="M24 24v77h77V24zm11 11h55v55H35z" clip-rule="evenodd"/><path d="M46 46h33v33H46z"/><path d="M475 24h-77v77h77zm-11 11v55h-55V35z" clip-rule="evenodd"/><path d="M453 46v33h-33V46z"/><path d="M24 475h77v-77H24zm11-11v-55h55v55z" clip-rule="evenodd"/><path d="M46 453v-33h33v33z"/></clipPath></defs><path fill="#fff" d="M0 0h500v500H0z" clip-path="url('#clip-path-background-color')"/><path d="M0 0h500v500H0z" clip-path="url('#a')"/></svg>