<svg xmlns="http://www.w3.org/2000/svg" viewBox="0 0 500 500"><defs><clipPath id="a"><path d="M28 136h12v12H28zM28 148h12v12H28zM28 172h12v12H28zM28 196h12v12H28zM28 220h12v12H28zM28 232h12v12H28zM28 256h12v12H28zM28 280h12v12H28zM28 328h12v12H28zM28 340h12v12H28zM28 352h12v12H28zM28 364h12v12H28zM40 136h12v12H40zM40 148h12v12H40zM40 172h12v12H40zM40 232h12v12H40zM40 304h12v12H40zM40 316h12v12H40zM40 328h12v12H40zM40 364h12v12H40zM52 124h12v12H52zM52 136h12v12H52zM52 172h12v12H52zM52 184h12v12H52zM52 208h12v12H52zM52 220h12v12H52zM52 232h12v12H52zM52 244h12v12H52zM52 268h12v12H52zM52 280h12v12H52zM52 316h12v12H52zM52 340h12v12H52zM64 148h12v12H64zM64 160h12v12H64zM64 172h12v12H64zM64 196h12v12H64zM64 208h12v12H64zM64 244h12v12H64zM64 292h12v12H64zM64 316h12v12H64zM64 328h12v12H64zM64 340h12v12H64zM64 364h12v12H64zM76 124h12v12H76zM76 136h12v12H76zM76 160h12v12H76zM76 184h12v12H76zM76 196h12v12H76zM76 220h12v12H76zM76 244h12v12H76zM76 280h12v12H76zM76 304h12v12H76zM76 352h12v12H76zM88 124h12v12H88zM88 136h12v12H88zM88 172h12v12H88zM88 184h12v12H88zM88 232h12v12H88zM88 244h12v12H88zM88 256h12v12H88zM88 268h12v12H88zM88 280h12v12H88zM88 292h12v12H88zM88 316h12v12H88zM88 364h12v12H88zM100 124h12v12h-12zM100 148h12v12h-12zM100 172h12v12h-12zM100 196h12v12h-12zM100 220h12v12h-12zM100 244h12v12h-12zM100 268h12v12h-12zM100 292h12v12h-12zM100 316h12v12h-12zM100 340h12v12h-12zM100 364h12v12h-12zM112 148h12v12h-12zM112 232h12v12h-12zM112 244h12v12h-12zM112 256h12v12h-12zM112 280h12v12h-12zM112 304h12v12h-12zM112 316h12v12h-12zM124 40h12v12h-12zM124 76h12v12h-12zM124 100h12v12h-12zM124 124h12v12h-12zM124 136h12v12h-12zM124 148h12v12h-12zM124 172h12v12h-12zM124 196h12v12h-12zM124 208h12v12h-12zM124 244h12v12h-12zM124 256h12v12h-12zM124 268h12v12h-12zM124 280h12v12h-12zM124 292h12v12h-12zM124 304h12v12h-12zM124 316h12v12h-12zM124 352h12v12h-12zM124 376h12v12h-12zM124 400h12v12h-12zM124 412h12v12h-12zM124 436h12v12h-12zM136 28h12v12h-12zM136 40h12v12h-12zM136 52h12v12h-12zM136 88h12v12h-12zM136 124h12v12h-12zM136 148h12v12h-12zM136 184h12v12h-12zM136 208h12v12h-12zM136 220h12v12h-12zM136 232h12v12h-12zM136 268h12v12h-12zM136 292h12v12h-12zM136 304h12v12h-12zM136 340h12v12h-12zM136 352h12v12h-12zM136 364h12v12h-12zM136 376h12v12h-12zM136 412h12v12h-12zM136 424h12v12h-12zM136 436h12v12h-12zM148 40h12v12h-12zM148 64h12v12h-12zM148 76h12v12h-12zM148 100h12v12h-12zM148 136h12v12h-12zM148 148h12v12h-12zM148 172h12v12h-12zM148 196h12v12h-12zM148 208h12v12h-12zM148 244h12v12h-12zM148 256h12v12h-12zM148 292h12v12h-12zM148 304h12v12h-12zM148 328h12v12h-12zM148 340h12v12h-12zM148 352h12v12h-12zM148 376h12v12h-12zM148 412h12v12h-12zM148 436h12v12h-12zM160 28h12v12h-12zM160 40h12v12h-12zM160 88h12v12h-12zM160 124h12v12h-12zM160 136h12v12h-12zM160 196h12v12h-12zM160 220h12v12h-12zM160 268h12v12h-12zM160 280h12v12h-12zM160 304h12v12h-12zM160 316h12v12h-12zM160 340h12v12h-12zM160 352h12v12h-12zM160 364h12v12h-12zM160 376h12v12h-12zM160 400h12v12h-12zM160 412h12v12h-12zM160 436h12v12h-12zM160 460h12v12h-12zM172 28h12v12h-12zM172 52h12v12h-12zM172 64h12v12h-12zM172 100h12v12h-12zM172 148h12v12h-12zM172 160h12v12h-12zM172 184h12v12h-12zM172 208h12v12h-12zM172 220h12v12h-12zM172 232h12v12h-12zM172 244h12v12h-12zM172 268h12v12h-12zM172 280h12v12h-12zM172 352h12v12h-12zM172 376h12v12h-12zM172 388h12v12h-12zM172 436h12v12h-12zM172 448h12v12h-12zM184 28h12v12h-12zM184 40h12v12h-12zM184 52h12v12h-12zM184 64h12v12h-12zM184 76h12v12h-12zM184 112h12v12h-12zM184 172h12v12h-12zM184 208h12v12h-12zM184 220h12v12h-12zM184 232h12v12h-12zM184 256h12v12h-12zM184 268h12v12h-12zM184 292h12v12h-12zM184 304h12v12h-12zM184 352h12v12h-12zM184 364h12v12h-12zM184 376h12v12h-12zM184 412h12v12h-12zM184 436h12v12h-12zM196 40h12v12h-12zM196 76h12v12h-12zM196 100h12v12h-12zM196 124h12v12h-12zM196 160h12v12h-12zM196 196h12v12h-12zM196 220h12v12h-12zM196 244h12v12h-12zM196 256h12v12h-12zM196 280h12v12h-12zM196 292h12v12h-12zM196 304h12v12h-12zM196 316h12v12h-12zM196 340h12v12h-12zM196 352h12v12h-12zM196 364h12v12h-12zM196 424h12v12h-12zM196 436h12v12h-12zM208 40h12v12h-12zM208 52h12v12h-12zM208 124h12v12h-12zM208 136h12v12h-12zM208 148h12v12h-12zM208 160h12v12h-12zM208 184h12v12h-12zM208 208h12v12h-12zM208 220h12v12h-12zM208 256h12v12h-12zM208 268h12v12h-12zM208 280h12v12h-12zM208 304h12v12h-12zM208 340h12v12h-12zM208 352h12v12h-12zM208 436h12v12h-12zM208 460h12v12h-12zM220 40h12v12h-12zM220 52h12v12h-12zM220 100h12v12h-12zM220 124h12v12h-12zM220 232h12v12h-12zM220 256h12v12h-12zM220 316h12v12h-12zM220 340h12v12h-12zM220 388h12v12h-12zM220 400h12v12h-12zM220 424h12v12h-12zM220 436h12v12h-12zM220 448h12v12h-12zM232 28h12v12h-12zM232 40h12v12h-12zM232 64h12v12h-12zM232 76h12v12h-12zM232 148h12v12h-12zM232 196h12v12h-12zM232 220h12v12h-12zM232 268h12v12h-12zM232 280h12v12h-12zM232 292h12v12h-12zM232 316h12v12h-12zM232 328h12v12h-12zM232 340h12v12h-12zM232 352h12v12h-12zM232 364h12v12h-12zM232 412h12v12h-12zM232 424h12v12h-12zM232 436h12v12h-12zM244 28h12v12h-12zM244 40h12v12h-12zM244 64h12v12h-12zM244 88h12v12h-12zM244 100h12v12h-12zM244 112h12v12h-12zM244 124h12v12h-12zM244 136h12v12h-12zM244 184h12v12h-12zM244 220h12v12h-12zM244 244h12v12h-12zM244 256h12v12h-12zM244 268h12v12h-12zM244 304h12v12h-12zM244 316h12v12h-12zM244 340h12v12h-12zM244 352h12v12h-12zM244 376h12v12h-12zM256 28h12v12h-12zM256 76h12v12h-12zM256 124h12v12h-12zM256 136h12v12h-12zM256 148h12v12h-12zM256 172h12v12h-12zM256 184h12v12h-12zM256 208h12v12h-12zM256 244h12v12h-12zM256 280h12v12h-12zM256 292h12v12h-12zM256 316h12v12h-12zM256 364h12v12h-12zM256 388h12v12h-12zM256 400h12v12h-12zM256 412h12v12h-12zM256 436h12v12h-12zM256 448h12v12h-12zM268 28h12v12h-12zM268 40h12v12h-12zM268 52h12v12h-12zM268 76h12v12h-12zM268 100h12v12h-12zM268 136h12v12h-12zM268 160h12v12h-12zM268 208h12v12h-12zM268 220h12v12h-12zM268 244h12v12h-12zM268 256h12v12h-12zM268 280h12v12h-12zM268 292h12v12h-12zM268 316h12v12h-12zM268 388h12v12h-12zM268 436h12v12h-12zM280 28h12v12h-12zM280 40h12v12h-12zM280 52h12v12h-12zM280 88h12v12h-12zM280 112h12v12h-12zM280 124h12v12h-12zM280 148h12v12h-12zM280 160h12v12h-12zM280 172h12v12h-12zM280 208h12v12h-12zM280 220h12v12h-12zM280 232h12v12h-12zM280 244h12v12h-12zM280 256h12v12h-12zM280 304h12v12h-12zM280 328h12v12h-12zM280 340h12v12h-12zM280 352h12v12h-12zM280 412h12v12h-12zM280 448h12v12h-12zM292 28h12v12h-12zM292 52h12v12h-12zM292 64h12v12h-12zM292 88h12v12h-12zM292 100h12v12h-12zM292 112h12v12h-12zM292 124h12v12h-12zM292 172h12v12h-12zM292 184h12v12h-12zM292 256h12v12h-12zM292 268h12v12h-12zM292 292h12v12h-12zM292 304h12v12h-12zM292 316h12v12h-12zM292 328h12v12h-12zM292 352h12v12h-12zM292 364h12v12h-12zM292 376h12v12h-12zM292 436h12v12h-12zM292 448h12v12h-12zM304 28h12v12h-12zM304 64h12v12h-12zM304 88h12v12h-12zM304 112h12v12h-12zM304 148h12v12h-12zM304 172h12v12h-12zM304 184h12v12h-12zM304 220h12v12h-12zM304 232h12v12h-12zM304 244h12v12h-12zM304 280h12v12h-12zM304 292h12v12h-12zM304 304h12v12h-12zM304 364h12v12h-12zM304 376h12v12h-12zM304 388h12v12h-12zM304 400h12v12h-12zM304 436h12v12h-12zM304 448h12v12h-12zM316 40h12v12h-12zM316 52h12v12h-12zM316 64h12v12h-12zM316 100h12v12h-12zM316 136h12v12h-12zM316 148h12v12h-12zM316 160h12v12h-12zM316 196h12v12h-12zM316 220h12v12h-12zM316 268h12v12h-12zM316 280h12v12h-12zM316 292h12v12h-12zM316 304h12v12h-12zM316 352h12v12h-12zM316 376h12v12h-12zM316 388h12v12h-12zM316 400h12v12h-12zM316 424h12v12h-12zM316 436h12v12h-12zM316 448h12v12h-12zM316 460h12v12h-12zM328 28h12v12h-12zM328 40h12v12h-12zM328 112h12v12h-12zM328 124h12v12h-12zM328 160h12v12h-12zM328 172h12v12h-12zM328 184h12v12h-12zM328 196h12v12h-12zM328 208h12v12h-12zM328 220h12v12h-12zM328 244h12v12h-12zM328 268h12v12h-12zM328 280h12v12h-12zM328 304h12v12h-12zM328 328h12v12h-12zM328 340h12v12h-12zM328 352h12v12h-12zM328 364h12v12h-12zM328 400h12v12h-12zM328 412h12v12h-12zM328 424h12v12h-12zM328 436h12v12h-12zM340 64h12v12h-12zM340 76h12v12h-12zM340 100h12v12h-12zM340 148h12v12h-12zM340 160h12v12h-12zM340 184h12v12h-12zM340 196h12v12h-12zM340 244h12v12h-12zM340 304h12v12h-12zM340 316h12v12h-12zM340 352h12v12h-12zM340 376h12v12h-12zM340 400h12v12h-12zM340 436h12v12h-12zM340 448h12v12h-12zM352 52h12v12h-12zM352 64h12v12h-12zM352 124h12v12h-12zM352 136h12v12h-12zM352 148h12v12h-12zM352 160h12v12h-12zM352 184h12v12h-12zM352 220h12v12h-12zM352 280h12v12h-12zM352 352h12v12h-12zM352 364h12v12h-12zM352 388h12v12h-12zM352 400h12v12h-12zM352 436h12v12h-12zM364 28h12v12h-12zM364 40h12v12h-12zM364 64h12v12h-12zM364 100h12v12h-12zM364 148h12v12h-12zM364 160h12v12h-12zM364 184h12v12h-12zM364 208h12v12h-12zM364 220h12v12h-12zM364 280h12v12h-12zM364 292h12v12h-12zM364 316h12v12h-12zM364 364h12v12h-12zM364 376h12v12h-12zM364 388h12v12h-12zM364 400h12v12h-12zM364 412h12v12h-12zM364 436h12v12h-12zM364 448h12v12h-12zM364 460h12v12h-12zM376 124h12v12h-12zM376 148h12v12h-12zM376 172h12v12h-12zM376 184h12v12h-12zM376 220h12v12h-12zM376 232h12v12h-12zM376 256h12v12h-12zM376 280h12v12h-12zM376 304h12v12h-12zM376 340h12v12h-12zM376 364h12v12h-12zM376 412h12v12h-12zM376 424h12v12h-12zM388 148h12v12h-12zM388 160h12v12h-12zM388 184h12v12h-12zM388 196h12v12h-12zM388 220h12v12h-12zM388 232h12v12h-12zM388 304h12v12h-12zM388 328h12v12h-12zM388 340h12v12h-12zM388 364h12v12h-12zM388 388h12v12h-12zM388 412h12v12h-12zM388 424h12v12h-12zM388 436h12v12h-12zM400 148h12v12h-12zM400 172h12v12h-12zM400 208h12v12h-12zM400 232h12v12h-12zM400 292h12v12h-12zM400 304h12v12h-12zM400 316h12v12h-12zM400 340h12v12h-12zM400 364h12v12h-12zM400 412h12v12h-12zM400 436h12v12h-12zM400 460h12v12h-12zM412 124h12v12h-12zM412 148h12v12h-12zM412 172h12v12h-12zM412 208h12v12h-12zM412 256h12v12h-12zM412 292h12v12h-12zM412 304h12v12h-12zM412 364h12v12h-12zM412 376h12v12h-12zM412 388h12v12h-12zM412 400h12v12h-12zM412 412h12v12h-12zM412 424h12v12h-12zM412 436h12v12h-12zM412 448h12v12h-12zM412 460h12v12h-12zM424 136h12v12h-12zM424 148h12v12h-12zM424 196h12v12h-12zM424 208h12v12h-12zM424 256h12v12h-12zM424 268h12v12h-12zM424 280h12v12h-12zM424 304h12v12h-12zM424 328h12v12h-12zM424 352h12v12h-12zM424 364h12v12h-12zM424 388h12v12h-12zM424 424h12v12h-12zM424 448h12v12h-12zM436 136h12v12h-12zM436 148h12v12h-12zM436 160h12v12h-12zM436 172h12v12h-12zM436 196h12v12h-12zM436 232h12v12h-12zM436 268h12v12h-12zM436 280h12v12h-12zM436 292h12v12h-12zM436 304h12v12h-12zM436 316h12v12h-12zM436 388h12v12h-12zM436 400h12v12h-12zM436 448h12v12h-12zM448 124h12v12h-12zM448 136h12v12h-12zM448 160h12v12h-12zM448 172h12v12h-12zM448 196h12v12h-12zM448 208h12v12h-12zM448 232h12v12h-12zM448 280h12v12h-12zM448 316h12v12h-12zM448 340h12v12h-12zM448 352h12v12h-12zM448 388h12v12h-12zM448 436h12v12h-12zM448 448h12v12h-12zM460 148h12v12h-12zM460 160h12v12h-12zM460 172h12v12h-12zM460 184h12v12h-12zM460 196h12v12h-12zM460 220h12v12h-12zM460 256h12v12h-12zM460 268h12v12h-12zM460 280h12v12h-12zM460 292h12v12h-12zM460 304h12v12h-12zM460 316h12v12h-12zM460 352h12v12h-12zM460 400h12v12h-12zM460 412h12v12h-12zM460 436h12v12h-12zM460 448h12v12h-12zM460 460h12v12h-12z"/><path d="M28 28v84h84V28zm12 12h60v60H40z" clip-rule="evenodd"/><path d="M52 52h36v36H52z"/><path d="M472 28h-84v84h84zm-12 12v60h-60V40z" clip-rule="evenodd"/><path d="M448 52v36h-36V52z"/><path d="M28 472h84v-84H28zm12-12v-60h60v60z" clip-rule="evenodd"/><path d="M52 448v-36h36v36z"/></clipPath></defs><path fill="#fff" d="M0 0h500v500H0z" clip-path="url('#clip-path-background-color')"/><path d="M0 0h500v500H0z" clip-path="url('#a')"/></svg>